<svg height="480pt" viewBox="0 -31 480 479" width="480pt" xmlns="http://www.w3.org/2000/svg"><g fill="#9bc9ff"><path d="m24 280.5h72v-16c.066406-8.808594 7.191406-15.933594 16-16 8.824219.027344 15.972656 7.175781 16 16v16h224v-16c.027344-8.824219 7.175781-15.972656 16-16 8.808594.066406 15.933594 7.191406 16 16v16h72c8.824219-.027344 15.972656-7.175781 16-16v-160c-.027344-8.824219-7.175781-15.972656-16-16h-432c-8.824219.027344-15.972656 7.175781-16 16v160c.027344 8.824219 7.175781 15.972656 16 16zm0 0"/><path d="m384 312.5h-32v-32h-224v32h-32v-32h-72v112c.027344 8.824219 7.175781 15.972656 16 16h400c8.824219-.027344 15.972656-7.175781 16-16v-112h-72zm0 0"/><path d="m151.671875 56.5c0-8.835938 7.164063-16 16-16h144.328125c8.835938 0 16 7.164062 16 16l-.433594 32h32.433594v-32c0-26.507812-21.492188-48-48-48h-144c-26.507812 0-48 21.492188-48 48v32h32zm0 0"/></g><path d="m456 80.5h-88v-24c-.035156-30.914062-25.085938-55.964844-56-56h-144c-30.914062.035156-55.964844 25.085938-56 56v24h-88c-13.253906 0-24 10.746094-24 24v160c.0429688 10.132812 6.445312 19.148438 16 22.527344v105.472656c0 13.253906 10.746094 24 24 24h400c13.253906 0 24-10.746094 24-24v-105.472656c9.554688-3.378906 15.957031-12.394532 16-22.527344v-160c0-13.253906-10.746094-24-24-24zm-328-24c.027344-22.082031 17.917969-39.972656 40-40h144c22.082031.027344 39.972656 17.917969 40 40v24h-16.320312l.320312-24c-.027344-13.242188-10.757812-23.972656-24-24h-144.296875c-13.242187.027344-23.972656 10.757812-24 24v.078125l.21875 23.921875h-15.921875zm31.671875 0c0-4.417969 3.582031-8 8-8h144.328125c4.375 0 7.9375 3.511719 8 7.886719l-.320312 24.113281h-159.757813zm288.328125 336c0 4.417969-3.582031 8-8 8h-400c-4.417969 0-8-3.582031-8-8v-104h56v24c0 4.417969 3.582031 8 8 8h32c4.417969 0 8-3.582031 8-8v-24h208v24c0 4.417969 3.582031 8 8 8h32c4.417969 0 8-3.582031 8-8v-24h56zm-328-112v24h-16v-40c-.003906-2.15625.886719-4.21875 2.457031-5.695312 1.453125-1.496094 3.457031-2.328126 5.542969-2.304688 4.417969 0 8 3.582031 8 8zm256 0v24h-16v-40c0-4.417969 3.582031-8 8-8 2.15625-.007812 4.222656.878906 5.703125 2.449219 1.484375 1.464843 2.3125 3.464843 2.296875 5.550781zm88-16c0 4.417969-3.582031 8-8 8h-64v-8c-.058594-13.230469-10.769531-23.941406-24-24-13.253906 0-24 10.746094-24 24v8h-208v-8c0-13.253906-10.746094-24-24-24-13.222656.074219-23.925781 10.777344-24 24v8h-64c-4.417969 0-8-3.582031-8-8v-160c0-4.417969 3.582031-8 8-8h432c4.417969 0 8 3.582031 8 8zm0 0" fill="#1e81ce"/></svg>